<svg xmlns="http://www.w3.org/2000/svg"><path d="M37.665 15.743a3.628 3.628 0 0 0-6.426-2.308c-3-2.108-7.283-3.427-12.038-3.427-4.754 0-9.037 1.319-12.037 3.427a3.628 3.628 0 1 0-4.201 5.655 7.114 7.114 0 0 0-.192 1.642c0 4.105 3.536 7.672 8.729 9.475-.059.325-.112.654-.161.988-2.391.92-4.122 3.621-4.122 6.81 0 3.567 2.166 6.524 4.995 7.06.413 1.379.92 2.626 1.501 3.703A4.878 4.878 0 0 0 12 48.461c-2.255 0-4.08 1.482-4.08 3.307 0 .288.058.561.145.827h22.165a2.75 2.75 0 0 0 .143-.827c0-1.825-1.827-3.307-4.083-3.307-.558 0-1.09.091-1.576.256.571-1.066 1.068-2.294 1.475-3.652 2.83-.536 4.996-3.493 4.996-7.06 0-3.19-1.73-5.89-4.121-6.81-.05-.335-.103-.664-.162-.988 5.194-1.803 8.731-5.368 8.731-9.475 0-.559-.065-1.107-.192-1.643a3.632 3.632 0 0 0 2.225-3.346M32.219 6.457a2.86 2.86 0 1 0 .003-5.716 2.86 2.86 0 0 0-.003 5.715" fill="#fff"/><path d="M13.412 15.981a2.661 2.661 0 0 0-2.657 2.659 2.661 2.661 0 0 0 2.657 2.657 2.66 2.66 0 0 0 2.659-2.657 2.662 2.662 0 0 0-2.659-2.659m11.576-.001M24.988 15.98a2.662 2.662 0 0 0-2.659 2.66 2.662 2.662 0 0 0 2.659 2.659 2.663 2.663 0 0 0 2.66-2.659 2.663 2.663 0 0 0-2.66-2.66" fill="#ef381f"/><path d="M19.201 28.113c2.863 0 4.904-.629 6.199-1.922a.739.739 0 0 0-1.043-1.044c-1.004 1.002-2.705 1.49-5.156 1.49-2.45 0-4.15-.488-5.153-1.49a.739.739 0 0 0-1.044 1.044c1.293 1.293 3.335 1.922 6.197 1.922M35.876 17.97" fill="#100f0d"/><path d="M35.876 17.97c-.617-1.689-1.8-3.254-3.485-4.597a2.87 2.87 0 0 1 1.648-.518 2.892 2.892 0 0 1 2.889 2.889c0 .895-.41 1.695-1.05 2.225zM19.201 30.716c-8.652 0-15.69-4.478-15.69-9.985 0-5.505 7.038-9.984 15.69-9.984s15.692 4.479 15.692 9.984-7.04 9.985-15.692 9.985zm11.246 7.288c0 2.662-1.319 4.948-3.192 5.916.58-2.366.9-5.014.9-7.782a35.98 35.98 0 0 0-.179-3.59c1.481 1.13 2.47 3.152 2.47 5.456zm-4.158 11.196c1.844 0 3.344 1.152 3.344 2.568l-.002.088h-6.256c.665-.686 1.276-1.533 1.824-2.512.342-.09.708-.142 1.09-.142zM8.661 51.857l-.002-.088c0-1.416 1.498-2.568 3.341-2.568.43 0 .843.063 1.223.179.542.964 1.148 1.8 1.804 2.477zm-.705-13.852c0-2.304.99-4.326 2.47-5.456a35.98 35.98 0 0 0-.18 3.59c0 2.768.322 5.416.9 7.781-1.871-.967-3.191-3.253-3.191-5.915zm18.35-6.829c.24 1.572.373 3.24.373 4.963 0 7.285-2.367 13.838-5.65 15.718h-3.656c-3.282-1.88-5.648-8.432-5.648-15.718 0-1.722.132-3.391.372-4.962 2.203.664 4.614 1.016 7.104 1.016 2.491 0 4.903-.352 7.106-1.017zM1.475 15.743a2.892 2.892 0 0 1 2.89-2.89c.611 0 1.18.192 1.647.519-1.686 1.343-2.869 2.908-3.485 4.596a2.884 2.884 0 0 1-1.052-2.225zM32.217 1.476c1.171 0 2.123.952 2.123 2.121 0 1.17-.952 2.122-2.123 2.122-1.169 0-2.12-.952-2.12-2.122 0-1.169.951-2.121 2.12-2.121zm6.186 14.267a4.371 4.371 0 0 0-4.367-4.366c-1.11 0-2.125.419-2.896 1.104-2.961-1.908-6.792-3.024-10.892-3.188l2.25-7.114 6.122 1.44a3.601 3.601 0 0 0 3.596 3.576c1.984 0 3.6-1.615 3.6-3.599a3.602 3.602 0 0 0-3.6-3.597 3.6 3.6 0 0 0-3.301 2.172L22.17.584a.739.739 0 0 0-.874.496l-2.593 8.199c-4.308.08-8.35 1.208-11.444 3.201a4.349 4.349 0 0 0-2.896-1.104A4.372 4.372 0 0 0 0 15.743c0 1.592.856 2.985 2.132 3.748-.064.409-.099.822-.099 1.24 0 3.121 1.828 6.034 5.147 8.2a18.297 18.297 0 0 0 3.481 1.753c-2.448 1.167-4.181 4.008-4.181 7.319 0 3.74 2.21 6.878 5.167 7.684.23.72.486 1.405.766 2.05a6.008 6.008 0 0 0-.412-.017c-2.657 0-4.818 1.815-4.818 4.045 0 .334.058.679.181 1.054a.735.735 0 0 0 .701.514H30.23a.74.74 0 0 0 .706-.518 3.46 3.46 0 0 0 .176-1.046c0-2.23-2.163-4.045-4.822-4.045-.1 0-.197.003-.296.008.279-.643.534-1.325.763-2.043 2.956-.805 5.167-3.944 5.167-7.684 0-3.312-1.734-6.152-4.182-7.318a18.325 18.325 0 0 0 3.48-1.754c3.319-2.166 5.148-5.078 5.148-8.2 0-.417-.033-.83-.098-1.24a4.365 4.365 0 0 0 2.132-3.748" fill="#100f0d"/></svg>