<svg id="svg2" xmlns="http://www.w3.org/2000/svg" viewBox="0 0 38.4 53.3"><style>.st0{fill:#fff}.st1{fill:#ef381f}.st2{fill:#100f0d}</style><g id="g10"><g id="g12"><path id="path14" class="st0" d="M282.5 281.9c0 15-12.2 27.2-27.2 27.2-8.4 0-16-3.9-21-9.9-22.5 15.8-54.6 25.7-90.3 25.7s-67.8-9.9-90.3-25.7c-5 6-12.5 9.9-21 9.9-15 0-27.2-12.2-27.2-27.2 0-11.3 6.9-21 16.7-25.1-1-4-1.4-8.1-1.4-12.3 0-30.8 26.5-57.5 65.5-71.1-.4-2.4-.8-4.9-1.2-7.4-17.9-6.9-30.9-27.2-30.9-51.1 0-26.8 16.2-48.9 37.5-53 3.1-10.3 6.9-19.7 11.3-27.8-3.9 1.5-8.3 2.3-12.9 2.3-16.9 0-30.6-11.1-30.6-24.8 0-2.2.4-4.2 1.1-6.2h166.2c.6 2 1.1 4 1.1 6.2 0 13.7-13.7 24.8-30.6 24.8-4.2 0-8.2-.7-11.8-1.9 4.3 8 8 17.2 11.1 27.4 21.2 4 37.5 26.2 37.5 53 0 23.9-13 44.2-30.9 51.1-.4 2.5-.8 5-1.2 7.4 38.9 13.5 65.5 40.3 65.5 71.1 0 4.2-.5 8.3-1.4 12.3 9.5 4.1 16.4 13.8 16.4 25.1m-40.9 69.7" transform="matrix(.13333 0 0 -.13333 0 53.333)"/><path id="path16" class="st0" d="M241.6 351.6c11.9 0 21.5 9.6 21.5 21.5 0 11.8-9.6 21.5-21.5 21.5-11.8 0-21.4-9.6-21.4-21.4s9.6-21.6 21.4-21.6" transform="matrix(.13333 0 0 -.13333 0 53.333)"/><path id="path18" class="st1" d="M100.6 280.1c-11 0-19.9-9-19.9-19.9 0-11 8.9-19.9 19.9-19.9 11 0 19.9 8.9 19.9 19.9s-8.9 19.9-19.9 19.9m86.8 0" transform="matrix(.13333 0 0 -.13333 0 53.333)"/><path id="path20" class="st1" d="M187.4 280.1c-11 0-19.9-9-19.9-20s8.9-19.9 19.9-19.9c11 0 19.9 8.9 19.9 19.9.1 11.1-8.9 20-19.9 20" transform="matrix(.13333 0 0 -.13333 0 53.333)"/><path id="path22" class="st2" d="M144 189.1c21.5 0 36.8 4.7 46.5 14.4 2.2 2.2 2.2 5.7 0 7.8s-5.7 2.2-7.8 0c-7.5-7.5-20.3-11.2-38.7-11.2s-31.1 3.7-38.7 11.2c-2.2 2.2-5.7 2.2-7.8 0s-2.2-5.7 0-7.8c9.7-9.6 25-14.4 46.5-14.4m125.1 76.1" transform="matrix(.13333 0 0 -.13333 0 53.333)"/><path id="path24" class="st2" d="M269.1 265.2c-4.6 12.7-13.5 24.4-26.1 34.5 3.5 2.5 7.8 3.9 12.4 3.9 12 0 21.7-9.7 21.7-21.7-.1-6.7-3.2-12.7-8-16.7zM144 169.6c-64.9 0-117.7 33.6-117.7 74.9 0 41.3 52.8 74.9 117.7 74.9s117.7-33.6 117.7-74.9-52.8-74.9-117.7-74.9zm84.4-54.6c0-20-9.9-37.1-23.9-44.4 4.4 17.8 6.8 37.6 6.8 58.4 0 9.2-.5 18.2-1.3 26.9 10.9-8.5 18.3-23.7 18.4-40.9zm-31.2-84c13.8 0 25.1-8.6 25.1-19.3V11h-46.9c5 5.2 9.6 11.5 13.7 18.8 2.5.8 5.2 1.2 8.1 1.2zM65 11.1v.7C64.9 22.3 76.2 31 90 31c3.2 0 6.3-.5 9.2-1.3 4.1-7.2 8.6-13.5 13.5-18.6H65zM59.7 115c0 17.3 7.4 32.5 18.5 40.9-.9-8.7-1.3-17.7-1.3-26.9 0-20.8 2.4-40.6 6.8-58.4-14.1 7.2-24 24.4-24 44.4zm137.6 51.2c1.8-11.8 2.8-24.3 2.8-37.2 0-54.6-17.8-103.8-42.4-117.9h-27.4C105.7 25.2 87.9 74.3 87.9 129c0 12.9 1 25.4 2.8 37.2 16.5-5 34.6-7.6 53.3-7.6 18.7-.1 36.8 2.6 53.3 7.6zM11.1 281.9c0 12 9.7 21.7 21.7 21.7 4.6 0 8.8-1.4 12.4-3.9-12.7-10.1-21.5-21.8-26.1-34.5-4.9 4-8 10-8 16.7zm230.5 107c8.8 0 15.9-7.1 15.9-15.9s-7.1-15.9-15.9-15.9-15.9 7.1-15.9 15.9 7.2 15.9 15.9 15.9zm46.4-107c0 18-14.7 32.7-32.8 32.7-8.3 0-15.9-3.1-21.7-8.3-22.2 14.3-50.9 22.7-81.7 23.9l16.9 53.4 45.9-10.8c.1-14.8 12.1-26.8 27-26.8s27 12.1 27 27-12.1 27-27 27c-11.1 0-20.6-6.7-24.8-16.3l-50.6 11.9c-2.8.7-5.7-1-6.6-3.7l-19.4-61.5c-32.3-.6-62.6-9.1-85.8-24-5.8 5.1-13.4 8.3-21.7 8.3-18 0-32.7-14.7-32.7-32.8 0-11.9 6.4-22.4 16-28.1-.5-3.1-.7-6.2-.7-9.3 0-23.4 13.7-45.3 38.6-61.5 7.9-5.2 16.7-9.6 26.1-13.1-18.4-8.8-31.4-30.1-31.4-54.9 0-28.1 16.6-51.6 38.8-57.6 1.7-5.4 3.7-10.5 5.8-15.4-1 .1-2.1.1-3.1.1C70.2 42.1 54 28.5 54 11.8c0-2.5.4-5.1 1.4-7.9C56 1.5 58.1 0 60.5 0h166.2c2.4 0 4.6 1.6 5.3 3.9.9 2.9 1.3 5.4 1.3 7.8 0 16.7-16.2 30.3-36.2 30.3-.8 0-1.5 0-2.2-.1 2.1 4.8 4 9.9 5.7 15.3 22.2 6 38.8 29.6 38.8 57.6 0 24.8-13 46.1-31.4 54.9 9.4 3.6 18.2 8 26.1 13.1 24.9 16.2 38.6 38.1 38.6 61.5 0 3.1-.2 6.2-.7 9.3 9.6 5.9 16 16.4 16 28.3" transform="matrix(.13333 0 0 -.13333 0 53.333)"/></g></g></svg>