<svg xmlns:dc="http://purl.org/dc/elements/1.1/" xmlns:cc="http://creativecommons.org/ns#" xmlns:rdf="http://www.w3.org/1999/02/22-rdf-syntax-ns#" xmlns:svg="http://www.w3.org/2000/svg" xmlns="http://www.w3.org/2000/svg" xml:space="preserve" id="svg2" version="1.1"><metadata id="metadata8"><rdf:RDF><cc:Work rdf:about=""><dc:format>image/svg+xml</dc:format><dc:type rdf:resource="http://purl.org/dc/dcmitype/StillImage"/></cc:Work></rdf:RDF></metadata><defs id="defs6"/><g transform="matrix(1.3333333,0,0,-1.3333333,0,53.333333)" id="g10"><g transform="scale(0.1)" id="g12"><path id="path14" d="m282.49 281.93c0 15.02-12.18 27.21-27.21 27.21-8.45 0-16-3.86-20.99-9.9-22.5 15.81-54.62 25.7-90.28 25.7-35.66 0-67.78-9.89-90.28-25.7-4.99 6.04-12.54 9.9-20.99 9.9-15.03 0-27.21-12.18-27.21-27.21 0-11.3 6.88-20.99 16.69-25.1-0.95-4.01-1.44-8.13-1.44-12.32 0-30.79 26.52-57.54 65.47-71.06-0.44-2.44-0.84-4.91-1.21-7.41-17.93-6.9-30.91-27.16-30.91-51.08 0-26.75 16.24-48.93 37.46-52.95 3.1-10.34 6.9-19.69 11.26-27.77-3.91 1.47-8.27 2.3-12.86 2.3-16.91 0-30.6-11.11-30.6-24.8 0-2.16 0.44-4.21 1.09-6.2H226.72c0.62 1.98 1.07 4.03 1.07 6.2 0 13.69-13.7 24.8-30.62 24.8-4.19 0-8.18-0.68-11.82-1.92 4.28 8 8.01 17.21 11.06 27.39 21.23 4.02 37.47 26.2 37.47 52.95 0 23.93-12.98 44.18-30.91 51.08-0.37 2.51-0.77 4.98-1.21 7.41 38.95 13.52 65.48 40.26 65.48 71.06 0 4.19-0.49 8.3-1.44 12.32 9.8 4.12 16.69 13.81 16.69 25.1M241.64 351.57 241.64 351.57 241.64 351.57" style="fill-rule:nonzero;fill:#fff"/><path id="path16" d="m241.64 351.57c11.86 0 21.46 9.6 21.46 21.45 0 11.84-9.6 21.45-21.46 21.45-11.84 0-21.44-9.6-21.44-21.44 0-11.84 9.6-21.45 21.44-21.45" style="fill-rule:nonzero;fill:#fff"/><path id="path18" d="m100.59 280.14c-10.99 0-19.93-8.95-19.93-19.94 0-10.99 8.95-19.93 19.93-19.93 11 0 19.94 8.94 19.94 19.93 0 10.99-8.94 19.94-19.94 19.94M187.41 280.15 187.41 280.15 187.41 280.15" style="fill-rule:nonzero;fill:#ef381f"/><path id="path20" d="m187.41 280.15c-11 0-19.94-8.95-19.94-19.95 0-11 8.95-19.94 19.94-19.94 11 0 19.95 8.95 19.95 19.94 0 11-8.95 19.95-19.95 19.95" style="fill-rule:nonzero;fill:#ef381f"/><path id="path22" d="m144.01 189.15c21.47 0 36.78 4.72 46.49 14.42 2.16 2.16 2.17 5.67 0.01 7.83-2.16 2.16-5.67 2.16-7.83 0-7.53-7.52-20.29-11.18-38.67-11.18-18.38 0-31.13 3.66-38.65 11.18-2.16 2.16-5.67 2.16-7.83 0-2.16-2.16-2.16-5.67 0-7.83 9.7-9.7 25.01-14.42 46.48-14.42M269.07 265.23 269.07 265.23 269.07 265.23" style="fill-rule:nonzero;fill:#100f0d"/><path id="path24" d="m269.07 265.23c-4.63 12.66-13.5 24.4-26.14 34.47 3.51 2.45 7.77 3.89 12.36 3.89 11.95 0 21.67-9.72 21.67-21.67 0-6.71-3.07-12.71-7.88-16.69zM144.01 169.62c-64.89 0-117.68 33.59-117.68 74.89 0 41.29 52.79 74.88 117.68 74.88 64.89 0 117.69-33.59 117.69-74.88 0-41.29-52.8-74.89-117.69-74.89zm84.34-54.66c0-19.96-9.89-37.11-23.94-44.37 4.35 17.75 6.75 37.61 6.75 58.37 0 9.25-0.47 18.25-1.34 26.92 11.11-8.47 18.52-23.64 18.52-40.92zm-31.18-83.97c13.83 0 25.08-8.64 25.08-19.26 0-0.22-0.01-0.44-0.02-0.66h-46.92c4.99 5.15 9.57 11.5 13.68 18.84 2.57 0.68 5.31 1.07 8.18 1.07zM64.96 11.07c-0.01 0.22-0.02 0.44-0.02 0.66 0 10.62 11.24 19.26 25.06 19.26 3.23 0 6.32-0.47 9.17-1.34 4.07-7.23 8.61-13.5 13.53-18.58zm-5.29 103.89c0 17.28 7.42 32.45 18.52 40.92-0.87-8.68-1.34-17.66-1.34-26.92 0-20.76 2.41-40.62 6.75-58.36-14.04 7.25-23.94 24.4-23.94 44.36zm137.62 51.22c1.81-11.79 2.8-24.3 2.8-37.22 0-54.64-17.75-103.79-42.37-117.89H130.3C105.68 25.17 87.94 74.31 87.94 128.96c0 12.91 0.99 25.43 2.79 37.21 16.52-4.98 34.6-7.62 53.28-7.62 18.68 0 36.77 2.64 53.29 7.63zM11.07 281.93c0 11.95 9.72 21.67 21.67 21.67 4.59 0 8.85-1.44 12.36-3.89-12.65-10.07-21.52-21.81-26.14-34.47-4.81 3.98-7.89 9.98-7.89 16.69zm230.56 107c8.78 0 15.92-7.14 15.92-15.91 0-8.77-7.14-15.91-15.92-15.91-8.77 0-15.9 7.14-15.9 15.91 0 8.77 7.13 15.91 15.9 15.91zm46.39-107c0 18.05-14.69 32.74-32.75 32.74-8.33 0-15.94-3.14-21.72-8.28-22.21 14.31-50.94 22.68-81.69 23.91l16.88 53.36 45.91-10.8c0.09-14.8 12.15-26.82 26.97-26.82 14.88 0 27 12.11 27 26.99 0 14.88-12.11 26.98-27 26.98-11.08 0-20.61-6.71-24.76-16.29l-50.58 11.9c-2.82 0.66-5.68-0.96-6.55-3.72l-19.45-61.49c-32.31-0.6-62.63-9.06-85.83-24.01-5.79 5.14-13.39 8.28-21.72 8.28C14.69 314.67 0 299.98 0 281.93c0-11.94 6.42-22.39 15.99-28.11-0.48-3.07-0.74-6.17-0.74-9.3 0-23.41 13.71-45.26 38.6-61.5 7.92-5.17 16.7-9.56 26.11-13.15-18.36-8.75-31.36-30.06-31.36-54.89 0-28.05 16.58-51.59 38.75-57.63 1.73-5.4 3.65-10.54 5.75-15.38-1.02 0.07-2.05 0.13-3.09 0.13-19.93 0-36.14-13.61-36.14-30.34 0-2.5 0.44-5.09 1.36-7.9C55.96 1.55 58.09 0 60.49 0H226.72c2.42 0 4.56 1.57 5.29 3.89 0.9 2.89 1.32 5.39 1.32 7.84 0 16.73-16.22 30.34-36.16 30.34-0.75 0-1.48-0.02-2.22-0.06 2.09 4.82 4 9.94 5.72 15.32 22.17 6.04 38.75 29.58 38.75 57.63 0 24.84-13 46.14-31.36 54.89 9.4 3.59 18.18 7.98 26.1 13.15 24.89 16.25 38.61 38.09 38.61 61.5 0 3.13-0.25 6.23-0.74 9.3 9.57 5.72 15.99 16.18 15.99 28.11" style="fill-rule:nonzero;fill:#100f0d"/></g></g></svg>
