<?xml version="1.0" encoding="utf-8"?>
<!-- Generator: Adobe Illustrator 19.2.1, SVG Export Plug-In . SVG Version: 6.00 Build 0)  -->
<svg version="1.1"
	 id="svg2" xmlns:cc="http://creativecommons.org/ns#" xmlns:dc="http://purl.org/dc/elements/1.1/" xmlns:rdf="http://www.w3.org/1999/02/22-rdf-syntax-ns#" xmlns:svg="http://www.w3.org/2000/svg"
	 xmlns="http://www.w3.org/2000/svg" xmlns:xlink="http://www.w3.org/1999/xlink" x="0px" y="0px" viewBox="0 0 38.4 53.3"
	 style="enable-background:new 0 0 38.4 53.3;" xml:space="preserve">
<style type="text/css">
	.st0{fill:#FFFFFF;}
	.st1{fill:#EF381F;}
	.st2{fill:#100F0D;}
</style>
<g id="g10" transform="matrix(1.3333333,0,0,-1.3333333,0,53.333333)">
	<g id="g12" transform="scale(0.1)">
		<path id="path14" class="st0" d="M282.5,281.9c0,15-12.2,27.2-27.2,27.2c-8.4,0-16-3.9-21-9.9c-22.5,15.8-54.6,25.7-90.3,25.7
			s-67.8-9.9-90.3-25.7c-5,6-12.5,9.9-21,9.9c-15,0-27.2-12.2-27.2-27.2c0-11.3,6.9-21,16.7-25.1c-1-4-1.4-8.1-1.4-12.3
			c0-30.8,26.5-57.5,65.5-71.1c-0.4-2.4-0.8-4.9-1.2-7.4c-17.9-6.9-30.9-27.2-30.9-51.1c0-26.8,16.2-48.9,37.5-53
			c3.1-10.3,6.9-19.7,11.3-27.8c-3.9,1.5-8.3,2.3-12.9,2.3c-16.9,0-30.6-11.1-30.6-24.8c0-2.2,0.4-4.2,1.1-6.2h166.2
			c0.6,2,1.1,4,1.1,6.2c0,13.7-13.7,24.8-30.6,24.8c-4.2,0-8.2-0.7-11.8-1.9c4.3,8,8,17.2,11.1,27.4c21.2,4,37.5,26.2,37.5,53
			c0,23.9-13,44.2-30.9,51.1c-0.4,2.5-0.8,5-1.2,7.4c38.9,13.5,65.5,40.3,65.5,71.1c0,4.2-0.5,8.3-1.4,12.3
			C275.6,260.9,282.5,270.6,282.5,281.9 M241.6,351.6L241.6,351.6L241.6,351.6"/>
		<path id="path16" class="st0" d="M241.6,351.6c11.9,0,21.5,9.6,21.5,21.5c0,11.8-9.6,21.5-21.5,21.5c-11.8,0-21.4-9.6-21.4-21.4
			S229.8,351.6,241.6,351.6"/>
		<path id="path18" class="st1" d="M100.6,280.1c-11,0-19.9-9-19.9-19.9c0-11,8.9-19.9,19.9-19.9c11,0,19.9,8.9,19.9,19.9
			S111.6,280.1,100.6,280.1 M187.4,280.1L187.4,280.1L187.4,280.1"/>
		<path id="path20" class="st1" d="M187.4,280.1c-11,0-19.9-9-19.9-20s8.9-19.9,19.9-19.9c11,0,19.9,8.9,19.9,19.9
			C207.4,271.2,198.4,280.1,187.4,280.1"/>
		<path id="path22" class="st2" d="M144,189.1c21.5,0,36.8,4.7,46.5,14.4c2.2,2.2,2.2,5.7,0,7.8s-5.7,2.2-7.8,0
			c-7.5-7.5-20.3-11.2-38.7-11.2s-31.1,3.7-38.7,11.2c-2.2,2.2-5.7,2.2-7.8,0s-2.2-5.7,0-7.8C107.2,193.9,122.5,189.1,144,189.1
			 M269.1,265.2L269.1,265.2L269.1,265.2"/>
		<path id="path24" class="st2" d="M269.1,265.2c-4.6,12.7-13.5,24.4-26.1,34.5c3.5,2.5,7.8,3.9,12.4,3.9c12,0,21.7-9.7,21.7-21.7
			C277,275.2,273.9,269.2,269.1,265.2L269.1,265.2z M144,169.6c-64.9,0-117.7,33.6-117.7,74.9c0,41.3,52.8,74.9,117.7,74.9
			s117.7-33.6,117.7-74.9S208.9,169.6,144,169.6z M228.4,115c0-20-9.9-37.1-23.9-44.4c4.4,17.8,6.8,37.6,6.8,58.4
			c0,9.2-0.5,18.2-1.3,26.9C220.9,147.4,228.3,132.2,228.4,115L228.4,115z M197.2,31c13.8,0,25.1-8.6,25.1-19.3c0-0.2,0-0.4,0-0.7
			h-46.9c5,5.2,9.6,11.5,13.7,18.8C191.6,30.6,194.3,31,197.2,31L197.2,31z M65,11.1c0,0.2,0,0.4,0,0.7C64.9,22.3,76.2,31,90,31
			c3.2,0,6.3-0.5,9.2-1.3c4.1-7.2,8.6-13.5,13.5-18.6H65z M59.7,115c0,17.3,7.4,32.5,18.5,40.9c-0.9-8.7-1.3-17.7-1.3-26.9
			c0-20.8,2.4-40.6,6.8-58.4C69.6,77.8,59.7,95,59.7,115L59.7,115z M197.3,166.2c1.8-11.8,2.8-24.3,2.8-37.2
			c0-54.6-17.8-103.8-42.4-117.9h-27.4C105.7,25.2,87.9,74.3,87.9,129c0,12.9,1,25.4,2.8,37.2c16.5-5,34.6-7.6,53.3-7.6
			C162.7,158.5,180.8,161.2,197.3,166.2L197.3,166.2z M11.1,281.9c0,12,9.7,21.7,21.7,21.7c4.6,0,8.8-1.4,12.4-3.9
			c-12.7-10.1-21.5-21.8-26.1-34.5C14.2,269.2,11.1,275.2,11.1,281.9z M241.6,388.9c8.8,0,15.9-7.1,15.9-15.9s-7.1-15.9-15.9-15.9
			c-8.8,0-15.9,7.1-15.9,15.9S232.9,388.9,241.6,388.9z M288,281.9c0,18-14.7,32.7-32.8,32.7c-8.3,0-15.9-3.1-21.7-8.3
			c-22.2,14.3-50.9,22.7-81.7,23.9l16.9,53.4l45.9-10.8c0.1-14.8,12.1-26.8,27-26.8c14.9,0,27,12.1,27,27s-12.1,27-27,27
			c-11.1,0-20.6-6.7-24.8-16.3l-50.6,11.9c-2.8,0.7-5.7-1-6.6-3.7l-19.4-61.5c-32.3-0.6-62.6-9.1-85.8-24
			c-5.8,5.1-13.4,8.3-21.7,8.3C14.7,314.7,0,300,0,281.9c0-11.9,6.4-22.4,16-28.1c-0.5-3.1-0.7-6.2-0.7-9.3
			c0-23.4,13.7-45.3,38.6-61.5c7.9-5.2,16.7-9.6,26.1-13.1c-18.4-8.8-31.4-30.1-31.4-54.9c0-28.1,16.6-51.6,38.8-57.6
			c1.7-5.4,3.7-10.5,5.8-15.4c-1,0.1-2.1,0.1-3.1,0.1c-19.9,0-36.1-13.6-36.1-30.3c0-2.5,0.4-5.1,1.4-7.9C56,1.5,58.1,0,60.5,0
			h166.2c2.4,0,4.6,1.6,5.3,3.9c0.9,2.9,1.3,5.4,1.3,7.8c0,16.7-16.2,30.3-36.2,30.3c-0.8,0-1.5,0-2.2-0.1c2.1,4.8,4,9.9,5.7,15.3
			c22.2,6,38.8,29.6,38.8,57.6c0,24.8-13,46.1-31.4,54.9c9.4,3.6,18.2,8,26.1,13.1c24.9,16.2,38.6,38.1,38.6,61.5
			c0,3.1-0.2,6.2-0.7,9.3C281.6,259.5,288,270,288,281.9"/>
	</g>
</g>
</svg>
