<?xml version="1.0" standalone="no"?>
<!DOCTYPE svg PUBLIC "-//W3C//DTD SVG 20010904//EN"
 "http://www.w3.org/TR/2001/REC-SVG-20010904/DTD/svg10.dtd">
<svg version="1.0" xmlns="http://www.w3.org/2000/svg"
 width="600.000000pt" height="600.000000pt" viewBox="0 0 600.000000 600.000000"
 preserveAspectRatio="xMidYMid meet">
<metadata>
Created by potrace 1.11, written by Peter Selinger 2001-2013
</metadata>
<g transform="translate(0.000000,600.000000) scale(0.100000,-0.100000)"
fill="#000000" stroke="none">
<path d="M2798 5995 c-1 -1 -41 -6 -87 -9 -47 -4 -87 -9 -90 -11 -3 -1 -37 -6
-76 -10 -38 -3 -72 -8 -75 -10 -4 -2 -22 -7 -41 -10 -64 -11 -244 -56 -322
-80 -627 -198 -1168 -591 -1549 -1125 -111 -156 -162 -241 -253 -428 -76 -154
-109 -234 -158 -387 -44 -136 -66 -219 -87 -330 -6 -27 -12 -61 -15 -75 -3
-14 -8 -45 -11 -70 -3 -25 -7 -56 -10 -70 -19 -116 -26 -519 -11 -670 23 -231
106 -596 166 -735 5 -11 16 -38 24 -60 49 -131 165 -364 247 -495 389 -621
979 -1076 1676 -1290 127 -39 330 -84 429 -96 28 -3 56 -7 63 -9 77 -26 638
-26 768 -1 10 2 55 9 99 16 139 20 424 93 510 130 11 5 31 12 45 16 14 3 43
15 65 24 22 10 83 37 135 60 174 75 417 220 589 352 177 136 414 371 531 527
14 18 34 45 46 59 35 45 120 175 188 285 78 127 201 401 256 567 50 155 102
378 116 495 3 33 8 63 10 66 25 42 24 654 -1 774 -3 11 -6 34 -9 50 -13 91
-21 130 -43 225 -13 58 -26 114 -28 124 -8 37 -68 212 -108 316 -96 246 -294
581 -469 794 -114 139 -307 329 -443 438 -206 164 -430 298 -710 424 -178 79
-489 166 -712 199 -54 7 -118 17 -143 20 -46 7 -505 16 -512 10z m-718 -1995
c94 -48 139 -151 115 -260 -7 -32 -45 -101 -69 -126 -11 -10 -27 -29 -164
-193 -35 -42 -73 -87 -85 -101 -12 -14 -77 -91 -145 -172 l-124 -148 29 -33
c25 -30 126 -147 430 -497 126 -144 142 -176 139 -261 -1 -55 -7 -74 -35 -118
-63 -97 -189 -133 -294 -82 -52 25 -64 38 -302 316 -66 77 -122 142 -125 145
-3 3 -46 52 -95 110 -49 58 -92 107 -95 110 -3 3 -42 48 -87 100 -113 133
-134 211 -83 314 16 33 169 218 339 411 14 17 78 91 141 165 63 74 117 137
120 140 3 3 32 36 64 75 32 38 70 78 84 89 57 45 171 52 242 16z m1374 -14
c81 -47 128 -151 111 -243 -5 -30 -282 -691 -410 -978 -12 -27 -82 -191 -156
-363 -142 -332 -159 -359 -236 -394 -165 -73 -351 59 -331 235 4 32 169 437
263 642 7 17 102 237 210 490 250 586 229 542 287 593 65 58 181 66 262 18z
m661 4 c51 -23 71 -42 180 -170 50 -58 92 -107 95 -110 3 -3 72 -84 155 -180
82 -96 152 -177 155 -180 3 -3 30 -34 60 -70 30 -35 70 -80 88 -100 109 -116
115 -227 18 -344 -22 -28 -46 -55 -52 -61 -5 -5 -35 -39 -65 -75 -30 -36 -66
-78 -80 -95 -15 -16 -86 -100 -159 -185 -164 -192 -212 -248 -240 -280 -12
-14 -37 -43 -56 -66 -94 -114 -273 -117 -364 -6 -53 64 -69 177 -34 244 17 33
70 103 109 144 11 11 36 41 57 65 59 71 102 122 118 139 18 18 108 124 136
159 10 13 26 31 34 40 9 9 40 44 69 79 l54 63 -20 22 c-55 61 -97 110 -168
192 -43 50 -97 113 -121 140 -23 28 -51 59 -61 71 -81 94 -133 154 -164 189
-49 55 -73 122 -66 184 20 168 173 259 322 191z"/>
</g>
</svg>
